<?xml version="1.0" encoding="utf-8"?>
<!-- Generator: Adobe Illustrator 24.0.1, SVG Export Plug-In . SVG Version: 6.00 Build 0)  -->
<svg version="1.1" id="Layer_1" xmlns="http://www.w3.org/2000/svg" xmlns:xlink="http://www.w3.org/1999/xlink" x="0px" y="0px"
	 viewBox="0 0 438.5 99" style="enable-background:new 0 0 438.5 99;" xml:space="preserve">
<style type="text/css">
	.st0{fill-rule:evenodd;clip-rule:evenodd;fill:#FFFFFF;}
</style>
<g>
	<path class="st0" d="M408.8,30h9l-0.1,14.1h1.9l5.1-14.1h9.7l-7,18.7l8,20.7H425l-5.2-15.8h-2.1l0.1,15.8h-9V30L408.8,30z
		 M378.6,30h8.9v14.2h6.4V30h8.9v39.4h-8.9V53.6h-6.4v15.8h-8.9V30z M347.5,69.4h9.3l1.1-6.8h6.4l1.1,6.8h9.3L366.9,30h-11.5
		L347.5,69.4z M361.1,42l1.7,12h-3.4L361.1,42L361.1,42z M322.6,69.4h10.9c2.4,0,12.2-1,12.3-12.9c0-10-7.6-11.8-12.6-11.8h-1.6
		v-5.2h12.1v-9.4h-21L322.6,69.4L322.6,69.4z M331.5,61.5v-9h1.3c1.1,0,4,0.1,4,4.1c0,4.1-2.9,4.8-4,4.8h-1.3V61.5z M287.2,30h7.8
		l6.9,9.3l6.9-9.3h7.7v39.4h-9.1v-24l-5.5,6.9l-5.5-6.9v24h-9.1C287.2,69.4,287.2,30,287.2,30z M268.3,69.9
		c10.8,0,14.5-10.1,14.5-20.2s-3.6-20.2-14.5-20.2c-10.8,0-14.5,10.1-14.5,20.2C253.9,59.7,257.5,69.9,268.3,69.9z M268.3,60.3
		c-3.2,0-4.9-3.7-4.9-10.7c0-6.9,1.6-10.7,4.9-10.7s4.9,3.7,4.9,10.7C273.2,56.6,271.6,60.3,268.3,60.3z M227.5,69.4h9.1v-13h3.1
		c9,0,11.8-8.1,11.8-13.3c0-5.1-3.2-13.1-11.8-13.1h-12.2L227.5,69.4L227.5,69.4z M236.6,38.7h2.2c2.1,0,3.4,1.3,3.4,4.5
		c0,4.2-2.2,4.5-3.4,4.5h-2.2V38.7L236.6,38.7z M197.3,30h24.9v39.4h-9.1V39.5h-6.6v29.9h-9.1L197.3,30L197.3,30z M178.6,45.3
		c1.5,0,4.2-1,4.2-3.9c0-3.4-3.1-3.6-4-3.6c-1,0-3.1,0.2-5,1.1l-0.1-8.6c3.1-0.8,5.3-1,8-1c7.5,0,10.8,5.2,10.8,10.3
		c0,5-2.9,8-5.6,9.1v0.4c2.7,0.9,6.3,3.4,6.3,9.5c0,7.4-5.2,11.6-11.8,11.6c-3.5,0-5.9-0.5-8.7-2.1l0.2-8.2c2.6,1.1,4.3,1.2,6.1,1.2
		c3,0,4.1-2.2,4.1-3.7c0-2.2-1.4-3.7-4.5-3.7h-3.7v-8.4L178.6,45.3L178.6,45.3z M142.7,69.4h9.2l1.2-6.8h6.4l1.1,6.8h9.2L162,30
		h-11.5L142.7,69.4z M156.3,41.9l1.7,12h-3.5L156.3,41.9z M125.1,30h18.7v9.8h-9.4v29.6h-9.3C125.1,69.4,125.1,30,125.1,30z
		 M48.7,3.8C23.5,3.8,3,24.3,3,49.5c0,25.1,20.5,45.6,45.7,45.6c25.1,0,45.6-20.5,45.6-45.6C94.3,24.3,73.8,3.8,48.7,3.8z
		 M48.7,92.8c-23.9,0-43.4-19.4-43.4-43.3S24.8,6.1,48.7,6.1S92,25.5,92,49.5C92,73.4,72.6,92.8,48.7,92.8z"/>
	<path class="st0" d="M30,22.1c11-4.9,24.5-4.6,31.7-1.4c2.3,1.1,3.8,1.7,4.5,3c-7.5-2-10.7-2.4-17-2.2c-8.9,0.2-20.8,3.7-25.3,6.4
		l-2,2.5c6.5-3.9,18.7-6.4,25.5-6.6c7.5-0.1,13.4,0.6,18.8,2.5c-0.3,1.4-1,2.1-2.2,2.7c-21.5-3.8-34.2,0.7-45.7,8.2l-0.8,2.5
		C30.3,31,46,28.5,61.2,31.1c-5.4,1.9-11.9,2.3-17.4,3.6c-4.6,1.1-7.1,1.4-13.3,3.4c-6.3,2.1-10,4.2-12.3,6.9
		c-1.1,1.3-2,2.7-2.2,4.3c-0.1,0.9,0,1.8,0.3,2.6c0.3,0.7,0.8,1.5,1.5,2.2c-0.7,1.3-1.4,2.9-0.3,4.8c0.5,0.9,1.7,1.8,2.9,2.6
		l-0.3,0.9c-0.2,1.1-0.3,2.4,0.4,3.5c1.3,2,2.8,3.3,5.2,4.6c0.4,1.6,0.9,3,2.2,4.1c2.7,2.5,8.7,7.2,19.4,8c8,0.5,13.8-1.9,15.9-3
		l2.6-1.4c-4.5,1.8-12,2.8-18.2,2.3c-9-0.7-17-6.6-18-8.3c0.3,0.2,0.7,0.4,1.1,0.5c10.5,5.1,24.1,7.8,41.4,0.7l1.4-1.4
		c-15.8,4.9-29.6,4.8-44.4-3c0.2-0.7,0.5-1.4,1.2-1.9c3.8,1.7,7.4,3.1,11.9,4c5.2,1,11.1,1.2,15.9,1c4.9-0.2,14.6-2.6,19.2-5.1
		c0.4-0.4,0.6-1,1-1.4c-9,3.3-19.6,4.8-26.1,4.3c-6.3-0.5-11.9-1.2-19.3-4.6c1.4-0.6,2.9-1.1,4.4-1.5c4.9,1.5,9.8,2.4,15.7,2.6
		c5.8,0.3,19.4-1.9,27.9-7.1c0.3-0.7,0.5-1.5,0.5-1.5s-11.8,6.7-25.3,6.7c-6.3,0-10.1-0.9-13-1.6c6.3-1.2,14.3-2.1,23.3-4.4
		c4.5-1.2,10.1-3.8,12.7-6c2.2-2,3.9-4.5,3.3-7.1c-0.1-0.7-1.1-2.3-2.2-2.9c1.1-1.4,1-2.6,0.8-3.7c-0.1-0.8-0.5-1.7-0.9-2.5
		c-0.8-1-1.7-1.9-2.9-2.5c0.2-1.1,0.1-2.3-0.4-3.3c-1.1-1.9-3.1-3.5-6.5-5.3c-0.2-0.7-0.6-1.6-1.3-2.5c-4.3-4.3-11.4-6.3-17.4-6.4
		c-0.3,0-0.7,0-1,0c-7,0-12.6,1.6-16,3.2C32.7,20.4,31.3,21.2,30,22.1z M69.8,27.9c1.5,1,3.2,2.4,3.4,3.9c-1.6-0.6-3.3-1.2-4.9-1.6
		C68.8,29.5,69.6,28.6,69.8,27.9z M61.9,34.5c1.8-0.7,3-1.4,4.1-2.3c2.4,0.6,4.6,1.4,6.4,2.2c-0.3,0.5-2.1,2.1-2.7,2.1h-0.1
		C67,35.9,64.8,35,61.9,34.5z M76.1,36.6c1.4,1.2,1.8,2.1,1.2,3.4c-0.9-0.7-2-1.1-3.1-1.6C74.8,37.9,75.5,37.3,76.1,36.6z
		 M32.2,41.5c6.6-2,14.3-3.4,21.3-4.3c4.8-0.6,7.3-0.1,11.9,1.2c-11.7,3.1-23.2,4.1-34.1,7.3C22.4,48.3,20,51.5,20,51.5
		C16.1,46.1,29.6,42.3,32.2,41.5L32.2,41.5z M38.4,48c9.8-2.1,18.8-3.4,22.6-4.4c4.5-1.1,7.7-2.2,9.9-3.2c0.1-0.2,3.7,1.6,4.1,2
		c-1.2,1-2.9,1.9-4.7,2.5c-5.5,2-15.6,4.1-20.9,4.9c-5.4,0.9-9.9,1.6-15.8,3.2c-3.4,0.9-5.8,2-7.4,3.1c-1.3-0.7-2-0.9-3.2-1.9
		C27,50.6,35.4,48.6,38.4,48L38.4,48z M36,56.5c9.3-2.3,17.5-2.7,28.8-5.8c5.4-1.4,9.4-3,11.9-4.9c0.4-0.3,0.7-0.6,1.1-0.9
		c3.3,5.1-9,9-17.4,10.8c-4.6,0.9-11.1,2.1-13.2,2.5c-5.5,0.9-7.3,1.4-11.1,2.5c-1.9-0.7-3.8-1.5-5.5-2.4C32.3,57.6,34.2,57,36,56.5
		L36,56.5z M23.1,58.2c-0.4,0.3-0.8,0.6-1.2,1c-0.8-0.5-1.7-1.5-1.3-2.5C21.5,57.3,22.1,57.7,23.1,58.2z M27,60.2
		c1.6,0.7,3.2,1.4,4.7,2.1c-1,0.4-2,0.9-2.9,1.4c-1.3-0.7-2.5-1.4-3.7-2.1C25.6,61.1,26.2,60.6,27,60.2L27,60.2z M26.4,65.7
		c-0.4,0.5-0.6,0.9-0.8,1.5c-1.3-1.1-2-2-1.9-3C24.6,64.7,25.5,65.2,26.4,65.7L26.4,65.7z"/>
</g>
</svg>
