<?xml version="1.0" encoding="utf-8"?>
<!-- Generator: Adobe Illustrator 24.0.1, SVG Export Plug-In . SVG Version: 6.00 Build 0)  -->
<svg version="1.1" id="Layer_1" xmlns="http://www.w3.org/2000/svg" xmlns:xlink="http://www.w3.org/1999/xlink" x="0px" y="0px"
	 viewBox="0 0 438.5 841.9" style="enable-background:new 0 0 438.5 841.9;" xml:space="preserve">
<style type="text/css">
	.st0{fill-rule:evenodd;clip-rule:evenodd;fill:#FFFFFF;}
</style>
<g>
	<path class="st0" d="M408.8,401.5h9l-0.1,14.1h1.9l5.1-14.1h9.7l-7,18.7l8,20.7H425l-5.2-15.8h-2.1l0.1,15.8h-9L408.8,401.5
		L408.8,401.5z M378.6,401.5h8.9v14.2h6.4v-14.2h8.9v39.4h-8.9v-15.8h-6.4v15.8h-8.9V401.5z M347.5,440.9h9.3l1.1-6.8h6.4l1.1,6.8
		h9.3l-7.8-39.4h-11.5L347.5,440.9z M361.1,413.5l1.7,12h-3.4L361.1,413.5L361.1,413.5z M322.6,440.9h10.9c2.4,0,12.2-1,12.3-12.9
		c0-10-7.6-11.8-12.6-11.8h-1.6v-5.2h12.1v-9.4h-21V440.9z M331.5,433V424h1.3c1.1,0,4,0.1,4,4.1c0,4.1-2.9,4.8-4,4.8H331.5z
		 M287.2,401.5h7.8l6.9,9.3l6.9-9.3h7.7v39.4h-9.1v-24l-5.5,6.9l-5.5-6.9v24h-9.1C287.2,440.9,287.2,401.5,287.2,401.5z
		 M268.3,441.4c10.8,0,14.5-10.1,14.5-20.2c0-10.1-3.6-20.2-14.5-20.2c-10.8,0-14.5,10.1-14.5,20.2
		C253.9,431.2,257.5,441.4,268.3,441.4z M268.3,431.8c-3.2,0-4.9-3.7-4.9-10.7c0-6.9,1.6-10.7,4.9-10.7s4.9,3.7,4.9,10.7
		C273.2,428.1,271.6,431.8,268.3,431.8z M227.5,440.9h9.1v-13h3.1c9,0,11.8-8.1,11.8-13.3c0-5.1-3.2-13.1-11.8-13.1h-12.2V440.9z
		 M236.6,410.2h2.2c2.1,0,3.4,1.3,3.4,4.5c0,4.2-2.2,4.5-3.4,4.5h-2.2V410.2L236.6,410.2z M197.3,401.5h24.9v39.4h-9.1V411h-6.6
		v29.9h-9.1V401.5z M178.6,416.8c1.5,0,4.2-1,4.2-3.9c0-3.4-3.1-3.6-4-3.6c-1,0-3.1,0.2-5,1.1l-0.1-8.6c3.1-0.8,5.3-1,8-1
		c7.5,0,10.8,5.2,10.8,10.3c0,5-2.9,8-5.6,9.1v0.4c2.7,0.9,6.3,3.4,6.3,9.5c0,7.4-5.2,11.6-11.8,11.6c-3.5,0-5.9-0.5-8.7-2.1
		l0.2-8.2c2.6,1.1,4.3,1.2,6.1,1.2c3,0,4.1-2.2,4.1-3.7c0-2.2-1.4-3.7-4.5-3.7h-3.7v-8.4L178.6,416.8L178.6,416.8z M142.7,440.9h9.2
		l1.2-6.8h6.4l1.1,6.8h9.2l-7.8-39.4h-11.5L142.7,440.9z M156.3,413.4l1.7,12h-3.5L156.3,413.4z M125.1,401.5h18.7v9.8h-9.4v29.6
		h-9.3V401.5z M48.7,375.3C23.5,375.3,3,395.8,3,421c0,25.1,20.5,45.6,45.7,45.6c25.1,0,45.6-20.5,45.6-45.6
		C94.3,395.8,73.8,375.3,48.7,375.3z M48.7,464.3c-23.9,0-43.4-19.4-43.4-43.3c0-23.9,19.5-43.4,43.4-43.4C72.6,377.6,92,397,92,421
		C92,444.9,72.6,464.3,48.7,464.3z"/>
	<path class="st0" d="M30,393.6c11-4.9,24.5-4.6,31.7-1.4c2.3,1.1,3.8,1.7,4.5,3c-7.5-2-10.7-2.4-17-2.2c-8.9,0.2-20.8,3.7-25.3,6.4
		l-2,2.5c6.5-3.9,18.7-6.4,25.5-6.6c7.5-0.1,13.4,0.6,18.8,2.5c-0.3,1.4-1,2.1-2.2,2.7c-21.5-3.8-34.2,0.7-45.7,8.2l-0.8,2.5
		c12.8-8.8,28.5-11.2,43.7-8.6c-5.4,1.9-11.9,2.3-17.4,3.6c-4.6,1.1-7.1,1.4-13.3,3.4c-6.3,2.1-10,4.2-12.3,6.9
		c-1.1,1.3-2,2.7-2.2,4.3c-0.1,0.9,0,1.8,0.3,2.6c0.3,0.7,0.8,1.5,1.5,2.2c-0.7,1.3-1.4,2.9-0.3,4.8c0.5,0.9,1.7,1.8,2.9,2.6
		l-0.3,0.9c-0.2,1.1-0.3,2.4,0.4,3.5c1.3,2,2.8,3.3,5.2,4.6c0.4,1.6,0.9,3,2.2,4.1c2.7,2.5,8.7,7.2,19.4,8c8,0.5,13.8-1.9,15.9-3
		l2.6-1.4c-4.5,1.8-12,2.8-18.2,2.3c-9-0.7-17-6.6-18-8.3c0.3,0.2,0.7,0.4,1.1,0.5c10.5,5.1,24.1,7.8,41.4,0.7l1.4-1.4
		c-15.8,4.9-29.6,4.8-44.4-3c0.2-0.7,0.5-1.4,1.2-1.9c3.8,1.7,7.4,3.1,11.9,4c5.2,1,11.1,1.2,15.9,1c4.9-0.2,14.6-2.6,19.2-5.1
		c0.4-0.4,0.6-1,1-1.4c-9,3.3-19.6,4.8-26.1,4.3c-6.3-0.5-11.9-1.2-19.3-4.6c1.4-0.6,2.9-1.1,4.4-1.5c4.9,1.5,9.8,2.4,15.7,2.6
		c5.8,0.3,19.4-1.9,27.9-7.1c0.3-0.7,0.5-1.5,0.5-1.5S69.6,436,56.1,436c-6.3,0-10.1-0.9-13-1.6c6.3-1.2,14.3-2.1,23.3-4.4
		c4.5-1.2,10.1-3.8,12.7-6c2.2-2,3.9-4.5,3.3-7.1c-0.1-0.7-1.1-2.3-2.2-2.9c1.1-1.4,1-2.6,0.8-3.7c-0.1-0.8-0.5-1.7-0.9-2.5
		c-0.8-1-1.7-1.9-2.9-2.5c0.2-1.1,0.1-2.3-0.4-3.3c-1.1-1.9-3.1-3.5-6.5-5.3c-0.2-0.7-0.6-1.6-1.3-2.5c-4.3-4.3-11.4-6.3-17.4-6.4
		c-0.3,0-0.7,0-1,0c-7,0-12.6,1.6-16,3.2C32.7,391.9,31.3,392.7,30,393.6z M69.8,399.4c1.5,1,3.2,2.4,3.4,3.9
		c-1.6-0.6-3.3-1.2-4.9-1.6C68.8,401,69.6,400.1,69.8,399.4z M61.9,406c1.8-0.7,3-1.4,4.1-2.3c2.4,0.6,4.6,1.4,6.4,2.2
		c-0.3,0.5-2.1,2.1-2.7,2.1c0,0-0.1,0-0.1,0C67,407.4,64.8,406.5,61.9,406z M76.1,408.1c1.4,1.2,1.8,2.1,1.2,3.4
		c-0.9-0.7-2-1.1-3.1-1.6C74.8,409.4,75.5,408.8,76.1,408.1z M32.2,413c6.6-2,14.3-3.4,21.3-4.3c4.8-0.6,7.3-0.1,11.9,1.2
		c-11.7,3.1-23.2,4.1-34.1,7.3C22.4,419.8,20,423,20,423C16.1,417.6,29.6,413.8,32.2,413L32.2,413z M38.4,419.5
		c9.8-2.1,18.8-3.4,22.6-4.4c4.5-1.1,7.7-2.2,9.9-3.2c0.1-0.2,3.7,1.6,4.1,2c-1.2,1-2.9,1.9-4.7,2.5c-5.5,2-15.6,4.1-20.9,4.9
		c-5.4,0.9-9.9,1.6-15.8,3.2c-3.4,0.9-5.8,2-7.4,3.1c-1.3-0.7-2-0.9-3.2-1.9C27,422.1,35.4,420.1,38.4,419.5L38.4,419.5z M36,428
		c9.3-2.3,17.5-2.7,28.8-5.8c5.4-1.4,9.4-3,11.9-4.9c0.4-0.3,0.7-0.6,1.1-0.9c3.3,5.1-9,9-17.4,10.8c-4.6,0.9-11.1,2.1-13.2,2.5
		c-5.5,0.9-7.3,1.4-11.1,2.5c-1.9-0.7-3.8-1.5-5.5-2.4C32.3,429.1,34.2,428.5,36,428L36,428z M23.1,429.7c-0.4,0.3-0.8,0.6-1.2,1
		c-0.8-0.5-1.7-1.5-1.3-2.5C21.5,428.8,22.1,429.2,23.1,429.7z M27,431.7c1.6,0.7,3.2,1.4,4.7,2.1c-1,0.4-2,0.9-2.9,1.4
		c-1.3-0.7-2.5-1.4-3.7-2.1C25.6,432.6,26.2,432.1,27,431.7L27,431.7z M26.4,437.2c-0.4,0.5-0.6,0.9-0.8,1.5c-1.3-1.1-2-2-1.9-3
		C24.6,436.2,25.5,436.7,26.4,437.2L26.4,437.2z"/>
</g>
</svg>
